<svg xmlns="http://www.w3.org/2000/svg" viewBox="0 0 324.42 336.52"><defs><style>.cls-1{fill:#adadad;}.cls-2{fill:#9b9b9b;}.cls-3{fill:#1d1d1b;}.cls-4,.cls-5{fill:#fff;}.cls-5{stroke:#1d1d1b;stroke-miterlimit:10;stroke-width:7px;}.cls-6{fill:#e52b1f;}.cls-7{fill:none;}</style></defs><title>Middel 4</title><g id="Laag_2" data-name="Laag 2"><g id="Laag_1-2" data-name="Laag 1"><path class="cls-1" d="M324.34,46.45a4,4,0,0,0-4.41-2.79,2.93,2.93,0,0,0-.94.55,5.16,5.16,0,0,0-2.48.71,3.78,3.78,0,0,1-.43-1.76,2.7,2.7,0,0,0-2.84-2.5,12.66,12.66,0,0,0-.86-1,1.14,1.14,0,0,1-.21-.5c.08-.64-3.53-.77-3.78-.86a6.7,6.7,0,0,0-.55-2.9c0-.56.73-2.18-1.1-2.63-1.44-.35-5.14-1.87-5-3.15S298,28.51,297,26.36a1,1,0,0,1,.12-.67c.71-1.18-6.64-5.93-7.12-6.17-1.92-1-3.89-1.83-5.83-2.75-3.89-1.83-7.77-3.66-11.61-5.6C258.66,3.13,241.82.49,225.83.06a131.92,131.92,0,0,0-20.6,1c-7.49,1-14.68,3.75-22.07,4.79a4.75,4.75,0,0,0-1.44.43l-.12.06A228.59,228.59,0,0,0,158,15.74c-11,5-25.57,21.52-28.33,26.7A108.85,108.85,0,0,0,121.21,61a71.4,71.4,0,0,0-3.76,18.42c-.29,5.54.57,11.07.45,16.62-.24,11.46-2,23.55-7.95,33.46-3.74,6.2-7.12,6.12-8.53,7.81s2,6.59,8,5a10.29,10.29,0,0,0,3.36-1.77c-1.23,1.19-.79,4.21-1,5.8a156.06,156.06,0,0,0-.82,18.51c.09.9.29,6.93,1.28,7.25,1,3.36,2.67,6.44,5.65,5.92-.13.1-8,6.7-8.66,9.23-6.25,1.65-10.62,6.9-15,11.5-4.92,5.23-8.64,9-12.76,14l-3.6,4.4c.92-.06,3.38-.85,2.77-.14C71.18,228.17,66,241.81,66.52,249.41c.67,10,7.6,23.28,11.45,25.4,14.36,7.9,22.55,13,35.13,20.38.24.14-.42.37-.63.57,24.23,10.78,48.51,11.85,72.08,12.62h0A206.6,206.6,0,0,0,239.36,301a152.29,152.29,0,0,0,26-9.88c12.25-6,14.53-9.12,15-12.07.31-1.94-2.42-6.08-7.9-14.29-3.33-5-5.61-8.13-10.37-15.21-1.57-2.34-2.85-4.26-3.68-5.52a13.81,13.81,0,0,0-1.3-7A28.41,28.41,0,0,1,255.6,234a7.15,7.15,0,0,1-1.08-3.08,6.58,6.58,0,0,1,3.09-4.38,46.61,46.61,0,0,0,4-3.16c2.37-2.35,5-4.44,7.23-6.91a54.49,54.49,0,0,0,8.81-8.39,19.81,19.81,0,0,0,3.42-8.41,60.47,60.47,0,0,1,6.94,0,33.68,33.68,0,0,0,7.07-.8,27.25,27.25,0,0,0,6.41-2.86,19.23,19.23,0,0,0,9.17-10.29,18.91,18.91,0,0,0-.27-10.23,20.81,20.81,0,0,0-4.44-9.34,23.09,23.09,0,0,0-3.47-3c.73-.09,1.52-.19,2.3-.35.39-.05.78-.1,1.17-.17a4.53,4.53,0,0,0,1.87-.79,4.64,4.64,0,0,0,3.1-3.48,3,3,0,0,0-1.33-3.21,7.23,7.23,0,0,0-.48-.74l.16-.18a6.3,6.3,0,0,0,.83-.73c.12.16.9-.63.78-1a6.33,6.33,0,0,0,1.2-4.71,14.46,14.46,0,0,0-1.14-3.27A86.79,86.79,0,0,1,307,134c-.15-.51-.33-1-.52-1.48a6.72,6.72,0,0,0,5.84,1.14,11.5,11.5,0,0,0,8.92-7.16,12.81,12.81,0,0,0-2.12-9.61c-4.29-7.19-10.32-13.2-14.59-20.45-.29-.49-.55-1-.81-1.48a9.5,9.5,0,0,1,.07-5.06c0-.23.18-1.1.21-1.3a8,8,0,0,1,.48-2.47c.39-.78,1-1.48,1.4-2.24a24,24,0,0,0,1.59-4.7,6,6,0,0,0,.23-3.93,5.33,5.33,0,0,0-.91-1.62,5.61,5.61,0,0,0-3-1.86c-1.82-.46-2.58.35-3.46.07-2.41-.77-4.53-9.35-.93-13.76,5-6.07,17.08.13,23.07-6.74C322.78,51.12,324.88,48.54,324.34,46.45Z"/><path class="cls-2" d="M254.67,167,165,131,98.51,296.36l89.68,36a8.53,8.53,0,0,0,11.06-4.72l60.13-149.6A8.53,8.53,0,0,0,254.67,167Z"/><path class="cls-3" d="M191.35,336.52a11.94,11.94,0,0,1-4.46-.87L94,298.3,163,126.43,256,163.78a12,12,0,0,1,6.66,15.61L202.5,329A12,12,0,0,1,191.35,336.52Zm-88.29-42.11,86.43,34.75a5,5,0,0,0,6.51-2.78l60.13-149.6a5,5,0,0,0-2.78-6.51l-86.43-34.74Z"/><path class="cls-4" d="M75.31,94.93,165,131,98.51,296.36l-89.68-36a8.53,8.53,0,0,1-4.72-11.06L64.25,99.65A8.53,8.53,0,0,1,75.31,94.93Z"/><path class="cls-3" d="M100.46,300.91,7.53,263.56A12,12,0,0,1,.87,247.94L61,98.35a12,12,0,0,1,15.62-6.66L169.54,129ZM72.16,97.82a5,5,0,0,0-2,.41A5,5,0,0,0,67.5,101L7.36,250.55a5,5,0,0,0,2.78,6.51l86.43,34.74,63.87-158.88L74,98.18A5,5,0,0,0,72.16,97.82Z"/><path class="cls-3" d="M98.48,300.12l-89.68-36a12,12,0,0,1-6.66-15.61L62.27,98.86A12,12,0,0,1,77.89,92.2l89.68,36L165,134.74l-89.68-36a5,5,0,0,0-6.51,2.78L8.64,251.06a5,5,0,0,0,2.78,6.51l89.68,36Z"/><path class="cls-5" d="M131.32,218.42"/><path class="cls-4" d="M99.79,296.87,171.64,308c3.48.54,7.75-2.58,9.49-6.92l60.13-149.6c1.74-4.34.33-8.33-3.15-8.87l-71.85-11.08"/><path class="cls-3" d="M98.48,300.12l1.84-6.71,71.85,11.08c1.46.23,4.41-1.52,5.71-4.76L238,150.14a4.52,4.52,0,0,0,.21-3.66.79.79,0,0,0-.64-.44L164.5,134.56l2.3-6.52,71.85,11.08A7.76,7.76,0,0,1,244.3,143a11.22,11.22,0,0,1,.21,9.74l-60.13,149.6c-2.36,5.87-8.19,9.85-13.27,9.07Z"/><path class="cls-5" d="M110.81,269.46"/><path class="cls-6" d="M110.94,273l-1.05-6.88,83.69-27.63a3.63,3.63,0,0,0,2-2.78l1.45-35.26-65.6,21.51-.7-7,64.66-21.35a6.57,6.57,0,0,1,6.11.86,6.72,6.72,0,0,1,2.53,5.77L202.6,236a10.48,10.48,0,0,1-6.83,9.14Z"/><path class="cls-7" d="M193.54,236.16l-2.11.08.44,11.27,2.11-.08c2.47-.1,3.93-2.26,3.79-5.81C197.62,237.85,196.15,236.06,193.54,236.16Z"/><path class="cls-6" d="M65.17,274a8.64,8.64,0,0,1-2.65-1.68,8.55,8.55,0,0,1-2.76-6l-1.54-40a8.62,8.62,0,0,1,8.26-8.93l64.7-2.5.27,7-64.7,2.5a1.62,1.62,0,0,0-1.54,1.66l1.54,40a1.62,1.62,0,0,0,1.66,1.54L110.67,266l.27,7-42.25,1.63A8.54,8.54,0,0,1,65.17,274Z"/><line class="cls-3" x1="123.31" y1="238.36" x2="125.35" y2="233.27"/><polygon class="cls-6" points="161.67 236.21 161.78 233.34 168.04 231.27 168.24 226.46 161.98 228.52 162.09 225.89 168.54 223.76 168.74 218.94 157.03 222.81 156.21 242.76 167.92 238.9 168.12 234.08 161.67 236.21"/><polygon class="cls-6" points="133.48 230.58 133.08 240.25 128.83 232.12 125.36 233.26 123.31 238.36 122.67 253.84 127.87 252.12 128.29 241.86 132.85 250.48 137.83 248.83 138.65 228.88 133.48 230.58"/><path class="cls-6" d="M190.14,221.71c.25-6-2.81-8.9-8.27-7.1l-7,2.31-.82,20,7-2.32C186.53,232.76,189.89,227.72,190.14,221.71Zm-8.88,7.92-1.75.58.42-10.08,1.75-.58c2.17-.72,3.27.54,3.13,3.92C184.67,226.64,183.31,228.95,181.25,229.63Z"/><polygon class="cls-6" points="145.21 226.71 144.39 246.67 149.65 244.93 150.47 224.97 145.21 226.71"/><circle class="cls-3" cx="93.01" cy="140.94" r="12.39" transform="translate(-72.45 174.67) rotate(-68.1)"/><path class="cls-3" d="M65.07,158.12c2.55-6.35,12.73-8.24,22.73-4.22s16,12.43,13.49,18.78Z"/><path class="cls-3" d="M101.56,179.24a7.55,7.55,0,0,1-2.82-.55l-36-14.47a7.62,7.62,0,0,1-4.22-9.89l14.47-36a7.62,7.62,0,0,1,9.89-4.22l36,14.47a7.62,7.62,0,0,1,4.22,9.89l-14.47,36a7.64,7.64,0,0,1-7.06,4.77Zm-21.5-60.67a2.63,2.63,0,0,0-1,.21,2.59,2.59,0,0,0-1.4,1.42l-14.47,36a2.62,2.62,0,0,0,1.44,3.38l36,14.47a2.61,2.61,0,0,0,3.38-1.44l14.47-36a2.62,2.62,0,0,0-1.44-3.38L81,118.76A2.57,2.57,0,0,0,80.06,118.57Z"/><rect class="cls-3" x="51.21" y="182.45" width="69.5" height="7" rx="3.5" ry="3.5" transform="translate(75.56 -18.64) rotate(21.9)"/><rect class="cls-3" x="46.13" y="195.11" width="69.5" height="7" rx="3.5" ry="3.5" transform="translate(79.91 -15.83) rotate(21.9)"/><rect class="cls-3" x="42.56" y="199.9" width="27.31" height="7" rx="3.5" ry="3.5" transform="translate(79.92 -6.29) rotate(21.9)"/><polygon class="cls-6" points="108.65 250.86 108.53 247.65 116.05 247.36 115.84 241.98 108.32 242.26 108.2 239.32 115.97 239.02 115.76 233.64 101.67 234.18 102.53 256.49 116.23 255.97 116.58 255.08 116.41 250.56 108.65 250.86"/><path class="cls-6" d="M84.35,234.85l-8.43.33.86,22.31,8.46-.33c6.56-.25,10.23-4.85,10-11.57S90.9,234.59,84.35,234.85ZM85,251.64l-2.11.08-.44-11.27,2.11-.08c2.61-.1,4.09,1.68,4.23,5.47C88.93,249.38,87.47,251.55,85,251.64Z"/></g></g></svg>